# xmcd
#
# Track frame offsets: 
#        150
#        19592
#        81761
#        101276
#
# Disc length: 1411 seconds
#
# Revision: 1
# Processed by: cddbd v1.5.2PL0 Copyright (c) Steve Scherf et al.
# Submitted via: ExactAudioCopyFreeDBPlugin 1.0
#
DISCID=1e058104
DTITLE=中野有香（CV：下地紫野） - THE IDOLM@STER CINDERELLA MASTER 042 中野有香
DYEAR=2016
DGENRE=Game
TTITLE0=恋色エナジー
TTITLE1=ドラマ「目指せ！シンデレラNO.1！ -中野有香編-」
TTITLE2=off vocal - 恋色エナジー　オリジナル・カラオケ
TTITLE3=ボーナス・トラック
EXTD=
EXTT0=
EXTT1=
EXTT2=
EXTT3=
PLAYORDER=
